<svg width="615" height="144" viewBox="0 0 615 144" fill="none" xmlns="http://www.w3.org/2000/svg">
<g clip-path="url(#clip0_1571_23)">
<path d="M58.1526 21.4113H60.1532C76.0357 21.4113 87.6664 30.1846 88.667 45.1317H113.137C113.137 18.5681 92.5435 -0.278281 59.7367 0.0060391C27.7631 -0.400132 6.6698 19.746 7.08671 41.1106C7.50357 62.4754 19.3008 76.2038 43.4372 81.1589L67.7818 86.0739C81.2048 88.795 86.5827 94.1971 86.5827 103.823C86.5827 114.181 77.0362 122.589 60.6535 122.589H58.6529C37.4761 122.589 24.9701 112.15 24.3449 95.8217H0C1.00047 125.919 20.8432 143.994 57.0689 143.994C90.0841 144.278 111.261 126.691 111.261 102.361C111.261 80.1843 97.3374 67.2274 71.9922 62.2317L50.0237 57.9261C37.5177 55.4889 31.7233 50.2088 31.7233 40.4607C31.6399 29.9003 42.0616 21.4113 58.1526 21.4113Z" fill="#F9F9F9"/>
<path d="M283.468 76.8943C283.468 54.7177 267.251 40.0547 241.281 40.0547C217.353 40.0547 200.261 53.5395 198.636 72.1829H222.105C223.023 64.4655 230.442 58.9009 240.489 58.9009H242.198C244.697 58.7878 247.192 59.1961 249.516 60.0992C251.839 61.0018 253.938 62.3785 255.671 64.1364C257.404 65.8942 258.731 67.9925 259.564 70.2908C260.396 72.5897 260.715 75.0346 260.498 77.4631V80.1847L233.861 82.3369C224.294 82.8769 215.083 86.0614 207.306 91.5164C203.74 94.2272 200.907 97.7465 199.055 101.767C197.202 105.788 196.385 110.189 196.677 114.587C196.385 131.687 211.559 144.197 230.026 143.994C236.546 144.106 242.988 142.596 248.743 139.607C253.905 136.971 258.23 133.011 261.249 128.153V130.509C261.395 134.37 261.757 138.221 262.332 142.044H284.426C283.568 134.751 283.205 127.41 283.343 120.071L283.468 76.8943ZM260.498 103.255C260.874 115.44 247.659 125.432 235.737 125.148H234.153C225.815 125.148 219.813 120.233 219.813 113.206C219.742 111.332 220.166 109.471 221.041 107.8C221.917 106.13 223.215 104.705 224.815 103.661C228.434 101.254 232.655 99.8499 237.029 99.5995L260.498 97.5686V103.255Z" fill="#F9F9F9"/>
<path d="M395.063 42.0049H371.594V142.045H395.063V42.0049Z" fill="#F9F9F9"/>
<path d="M396.021 1.95605H370.592V26.8544H396.021V1.95605Z" fill="#F9F9F9"/>
<path d="M459.509 40.0552C430.871 39.649 409.11 62.1102 409.485 92.0046C409.11 121.899 430.871 144.36 459.509 143.994C488.231 144.36 509.991 121.899 509.533 92.0046C509.991 62.1102 488.231 39.649 459.509 40.0552ZM460.385 125.351H458.717C443.418 125.351 433.08 113.166 433.08 92.2078C433.08 71.2491 443.418 59.0235 458.717 59.0235H460.385C475.684 59.0235 486.063 71.2084 486.063 92.1265C486.063 113.044 475.684 125.148 460.385 125.148V125.351Z" fill="#F9F9F9"/>
<path d="M579.025 40.0547C572.772 39.8406 566.57 41.2283 561.04 44.0792C555.51 46.9301 550.849 51.1445 547.51 56.3014V42.0043H524.042V142.044H547.51V86.2771C547.51 70.5178 558.766 58.9011 571.981 58.9011H573.562C585.485 58.9011 591.532 66.5372 591.532 80.1843V142.044H615V76.6913C615 54.9612 602.746 40.0547 579.025 40.0547Z" fill="#F9F9F9"/>
<path d="M162.787 9.51074H139.401V41.9639H117.849V61.0134H139.401V142.004H162.787H186.381V121.899H162.787V61.0134H186.381V41.9639H162.787V9.51074Z" fill="#F9F9F9"/>
<path d="M334.408 9.51074H311.022V41.9639H289.47V61.0134H311.022V142.004H334.408H358.002V121.899H334.408V61.0134H358.002V41.9639H334.408V9.51074Z" fill="#F9F9F9"/>
</g>
<defs>
<clipPath id="clip0_1571_23">
<rect width="615" height="144" fill="white"/>
</clipPath>
</defs>
</svg>
