<svg width="14" height="12" viewBox="0 0 14 12" fill="none" xmlns="http://www.w3.org/2000/svg">
<path d="M10.378 0.833374L10.6667 0.666763L10.6667 0.666813L10.9553 0.833516C10.8959 0.936405 10.7861 0.99994 10.667 1.00004C10.6669 1.00004 10.6668 1.00004 10.6667 1.00004C10.5477 1.00004 10.4376 0.936499 10.378 0.833374ZM10.378 0.833374L10.6665 0.666692L10.3782 0.500147L10.6666 0.666633L10.6667 0.666572L10.9553 0.499853C10.8958 0.396944 10.7859 0.333374 10.6667 0.333374C10.5477 0.333374 10.4376 0.396915 10.378 0.500041C10.3185 0.603166 10.3185 0.730254 10.378 0.833374ZM10.9554 0.833337L10.6668 0.666703L10.9554 0.500064C11.015 0.603205 11.0149 0.730219 10.9554 0.833337Z" stroke="#64748B" stroke-width="1.33333"/>
</svg>
